#!OML:ASF F:\VICON\USERDATA\Patient Classification 1\PLAYGROUND\JustinFriday\JustinFriday.ASF
:FULLY-SPECIFIED
:DEGREES
1505
root 34.331 27.0789 -8.54994 71.4981 -82.9655 -59.5361
lowerback 20.6121 3.86173 -1.58818
upperback 6.67604 4.44193 3.10113
thorax -4.62515 1.96062 3.16077
lowerneck -1.04957 -3.85707 -9.34763
upperneck 30.0862 -6.5049 3.16419
head 10.1577 -4.02513 2.10287
rclavicle 1.78906e-015 -1.41137e-014
rhumerus 11.3442 16.2669 -72.5146
rradius 38.3892
rwrist 17.1323
rhand -24.9989 -22.3534
rfingers 7.12502
rthumb 1.5126 -52.3278
lclavicle 1.78906e-015 -1.41137e-014
lhumerus 97.0992 4.63919 58.4288
lradius 56.7015
lwrist 4.29791
lhand -26.3275 -41.2059
lfingers 7.12502
lthumb 0.229392 -11.2263
rfemur -23.6231 -3.24376 25.9066
rtibia 51.6867
rfoot -16.6526 -13.7468
rtoes 15.8993
lfemur -27.0877 6.10466 -13.9659
ltibia 39.8853
lfoot -21.8138 -9.21751
ltoes 16.3533
1506
root 34.3693 27.0416 -8.55766 69.9219 -82.5856 -58.0208
lowerback 20.6853 3.68755 -0.801992
upperback 6.70005 4.34869 2.79661
thorax -4.5492 1.9163 2.40983
lowerneck -0.821532 -3.75116 -8.93778
upperneck 30.2427 -6.54885 3.55739
head 10.1675 -3.97402 2.17558
rclavicle -3.95581e-014 8.15017e-015
rhumerus 11.8804 13.7097 -74.0172
rradius 35.9849
rwrist 18.3592
rhand -25.7278 -18.92
rfingers 7.12502
rthumb 0.808625 -48.8982
lclavicle -3.95581e-014 8.15017e-015
lhumerus 95.9307 4.91296 58.8022
lradius 59.0905
lwrist 8.45421
lhand -23.9432 -42.7027
lfingers 7.12502
lthumb 2.53223 -12.738
rfemur -23.5648 -3.10341 26.0918
rtibia 52.0783
rfoot -14.8675 -13.9564
rtoes 15.8606
lfemur -27.7965 7.41069 -14.4305
ltibia 40.4027
lfoot -23.0302 -5.22657
ltoes -0.904157
1507
root 34.4012 27.0513 -8.56567 68.3842 -82.2715 -56.6201
lowerback 20.8439 3.6782 -0.207377
upperback 6.7519 4.443 2.75219
thorax -4.53106 1.95993 1.99761
lowerneck -0.476699 -3.63141 -9.52865
upperneck 30.4037 -6.62029 4.45575
head 10.2189 -3.9952 2.60128
rclavicle -3.3197e-014 2.36554e-014
rhumerus 12.3922 11.2788 -74.8367
rradius 33.8062
rwrist 19.2249
rhand -25.1244 -19.6476
rfingers 7.12502
rthumb 1.39139 -49.6228
lclavicle -3.3197e-014 2.36554e-014
lhumerus 95.3821 3.94702 59.4412
lradius 60.9229
lwrist 12.0631
lhand -21.9626 -43.7116
lfingers 7.12502
lthumb 4.44491 -13.7783
rfemur -23.1628 -3.13678 26.2087
rtibia 51.9691
rfoot -12.9891 -14.0031
rtoes 14.3975
lfemur -27.9347 5.84917 -13.3202
ltibia 41.1049
lfoot -21.1736 -10.4236
ltoes 20.2936
1508
root 34.4401 27.0518 -8.58045 66.1308 -82.1581 -54.4424
lowerback 21.071 3.64942 -0.277852
upperback 6.82269 4.39971 3.07791
thorax -4.60072 1.93094 2.38894
lowerneck -1.31404 -3.39778 -10.7097
upperneck 31.7876 -6.34127 4.91003
head 10.9519 -3.97665 2.98641
rclavicle -3.08116e-014 1.2921e-014
rhumerus 13.1682 9.99499 -74.947
rradius 31.8706
rwrist 19.2875
rhand -24.0562 -20.864
rfingers 7.12502
rthumb 2.42311 -50.83
lclavicle -3.08116e-014 1.2921e-014
lhumerus 93.5726 4.28777 59.4173
lradius 63.7538
lwrist 16.4379
lhand -21.5738 -43.7942
lfingers 7.12502
lthumb 4.8203 -13.869
rfemur -22.9705 -3.09839 26.0652
rtibia 51.9838
rfoot -11.544 -13.7063
rtoes 14.2739
lfemur -28.3237 5.36999 -13.0102
ltibia 41.6294
lfoot -19.9638 -12.336
ltoes 26.7798
1509
root 34.4821 27.0261 -8.59458 63.967 -81.9637 -52.2991
lowerback 21.3231 3.55118 -0.373187
upperback 6.79906 4.2696 3.37033
thorax -4.77867 1.86359 2.77893
lowerneck -0.381422 -3.44141 -10.8906
upperneck 30.8568 -6.33153 4.62468
head 10.4136 -4.01136 2.92736
rclavicle 4.25399e-014 -3.10104e-014
rhumerus 13.7381 9.20992 -75.1327
rradius 30.2258
rwrist 18.7642
rhand -23.6624 -21.1701
rfingers 7.12502
rthumb 2.80344 -51.1314
lclavicle 4.25399e-014 -3.10104e-014
lhumerus 90.4237 5.60202 57.9005
lradius 67.5949
lwrist 20.565
lhand -22.9515 -43.8302
lfingers 7.12502
lthumb 3.48992 -13.879
rfemur -22.8885 -3.46841 25.9577
rtibia 51.8621
rfoot -10.2491 -13.0032
rtoes 15.2858
lfemur -28.8999 5.97384 -13.3386
ltibia 42.1394
lfoot -20.6784 -11.2228
ltoes 20.4315
1510
root 34.5128 26.9956 -8.60161 62.1348 -81.8507 -50.5769
lowerback 21.5047 3.64706 -0.173394
upperback 6.77264 4.43949 3.41954
thorax -4.8985 1.94573 2.66694
lowerneck 0.481924 -3.59211 -10.6503
upperneck 30.3452 -6.65661 4.72697
head 10.0788 -4.12482 2.90998
rclavicle -2.48481e-014 -2.78299e-015
rhumerus 13.9081 7.50741 -75.4433
rradius 28.6508
rwrist 18.4038
rhand -24.089 -23.2092
rfingers 7.12502
rthumb 2.39143 -53.1756
lclavicle -2.48481e-014 -2.78299e-015
lhumerus 88.8083 4.5339 58.7819
lradius 70.406
lwrist 21.3753
lhand -29.2748 -31.0366
lfingers 7.12502
lthumb -2.61715 -1.07287
rfemur -22.6199 -3.86224 25.765
rtibia 51.5751
rfoot -8.69213 -12.4309
rtoes 14.865
lfemur -29.3484 6.5226 -13.8245
ltibia 42.6905
lfoot -22.0992 -8.74782
ltoes 9.70623
